<?xml version="1.0" encoding="iso-8859-1"?>
<!-- Uploaded to: SVG Repo, www.svgrepo.com, Generator: SVG Repo Mixer Tools -->
<svg height="800px" width="800px" version="1.1" id="Layer_1" xmlns="http://www.w3.org/2000/svg" xmlns:xlink="http://www.w3.org/1999/xlink" 
	 viewBox="0 0 503.467 503.467" xml:space="preserve">
<g transform="translate(1 1)">
	<path style="fill:#AAB1BA;" d="M298.52,169.667c-14.507-8.533-30.72-13.653-47.787-13.653c-52.053,0-93.867,41.813-93.867,93.867
		s41.813,93.867,93.867,93.867S344.6,301.933,344.6,249.88c0-9.387-1.707-18.773-4.267-27.307v-0.853
		c-4.267,1.707-8.533,2.56-12.8,2.56c-18.773,0-34.133-15.36-34.133-34.133c0-7.68,2.56-14.507,6.827-19.627L298.52,169.667z
		 M361.667,74.947l50.347-13.653l0.853,2.56c18.773,16.213,34.987,35.84,48.64,56.32v2.56c-17.92,0.853-31.573,16.213-31.573,34.133
		c0,18.773,15.36,34.133,34.133,34.133c9.387,0,17.92-3.413,23.893-10.24l0,0c6.827,22.187,10.24,45.227,10.24,69.12
		c0,136.533-110.933,247.467-247.467,247.467S3.267,386.413,3.267,249.88S114.2,2.413,250.733,2.413
		c43.52,0,84.48,11.093,119.467,30.72v0.853l-8.533,2.56V74.947z M327.533,225.133c18.773,0,34.133-15.36,34.133-34.133
		s-15.36-34.133-34.133-34.133S293.4,172.227,293.4,191S308.76,225.133,327.533,225.133z"/>
	<path style="fill:#FF7474;" d="M327.533,225.133c18.773,0,34.133-15.36,34.133-34.133s-15.36-34.133-34.133-34.133
		S293.4,172.227,293.4,191S308.76,225.133,327.533,225.133z M464.067,191c18.773,0,34.133-15.36,34.133-34.133
		s-15.36-34.133-34.133-34.133c-18.773,0-34.133,15.36-34.133,34.133S445.293,191,464.067,191z M498.2,3.267l-128,31.573
		l-8.533,2.56v37.547l50.347-13.653L498.2,37.4V3.267z"/>
	<path style="fill:#ECF4F7;" d="M250.733,225.133c14.507,0,25.6,11.093,25.6,25.6c0,14.507-11.093,25.6-25.6,25.6
		c-14.507,0-25.6-11.093-25.6-25.6C225.133,236.227,236.227,225.133,250.733,225.133"/>
</g>
<path style="fill:#51565F;" d="M251.733,503.467C112.64,503.467,0,390.827,0,251.733S112.64,0,251.733,0
	c29.867,0,58.88,5.12,86.187,15.36c2.56,0.853,3.413,3.413,2.56,5.12c-0.853,2.56-3.413,3.413-5.12,2.56
	c-26.453-9.387-54.613-14.507-83.627-14.507c-133.973,0-243.2,109.227-243.2,243.2s109.227,243.2,243.2,243.2
	s243.2-109.227,243.2-243.2c0-11.093-0.853-22.187-2.56-33.28c0-2.56,1.707-4.267,3.413-5.12c2.56,0,4.267,1.707,5.12,3.413
	c1.707,11.093,2.56,23.04,2.56,34.987C503.467,390.827,390.827,503.467,251.733,503.467z M354.133,433.493
	c-1.707,0-2.56-0.853-3.413-2.56l-35.84-62.293c0-0.853-0.853-1.707-0.853-2.56c0-1.707,0.853-2.56,2.56-3.413
	c1.707-0.853,4.267-0.853,5.973,1.707l35.84,62.293c0,0.853,0.853,1.707,0.853,2.56c0,1.707-0.853,2.56-2.56,3.413
	C355.84,433.493,354.987,433.493,354.133,433.493z M429.227,358.4c-0.853,0-1.707,0-2.56-0.853l-62.293-35.84
	c-1.707-0.853-2.56-2.56-2.56-3.413s0-1.707,0.853-2.56c0.853-1.707,3.413-2.56,5.973-1.707l62.293,35.84
	c1.707,0.853,2.56,2.56,2.56,3.413s0,1.707-0.853,2.56C432.64,357.547,430.933,358.4,429.227,358.4z M251.733,349.867
	c-53.76,0-98.133-44.373-98.133-98.133s44.373-98.133,98.133-98.133c5.973,0,11.947,0.853,17.92,1.707c2.56,0,4.267,2.56,3.413,5.12
	c0,2.56-2.56,4.267-5.12,3.413c-5.12-0.853-10.24-1.707-16.213-1.707c-49.493,0-89.6,40.107-89.6,89.6s40.107,89.6,89.6,89.6
	c46.933,0,85.333-34.987,89.6-81.067c0-1.707,0-2.56,0-4.267c0-2.56,2.56-4.267,4.267-4.267c2.56,0,4.267,1.707,4.267,4.267
	c0,1.707,0,3.413,0,4.267C344.747,311.467,302.933,349.867,251.733,349.867z M251.733,281.6c-16.213,0-29.867-13.653-29.867-29.867
	s13.653-29.867,29.867-29.867S281.6,235.52,281.6,251.733S267.947,281.6,251.733,281.6z M251.733,230.4
	c-11.947,0-21.333,9.387-21.333,21.333c0,11.947,9.387,21.333,21.333,21.333c11.947,0,21.333-9.387,21.333-21.333
	C273.067,239.787,263.68,230.4,251.733,230.4z M328.533,230.4c-21.333,0-38.4-17.067-38.4-38.4s17.067-38.4,38.4-38.4
	c2.56,0,4.267,1.707,4.267,4.267c0,2.56-1.707,4.267-4.267,4.267c-16.213,0-29.867,13.653-29.867,29.867
	s13.653,29.867,29.867,29.867S358.4,208.213,358.4,192V75.947l0,0l0,0V38.4c0-1.707,1.707-3.413,3.413-4.267L498.347,0
	c0.853,0,2.56,0,3.413,0.853c0.853,0.853,1.707,1.707,1.707,3.413v153.6c0,21.333-17.067,38.4-38.4,38.4s-38.4-17.067-38.4-38.4
	s17.067-38.4,38.4-38.4c2.56,0,4.267,1.707,4.267,4.267c0,2.56-1.707,4.267-4.267,4.267c-16.213,0-29.867,13.653-29.867,29.867
	s13.653,29.867,29.867,29.867s29.867-13.653,29.867-29.867V9.387l-128,32.427v29.013l105.813-28.16
	c2.56-0.853,4.267,0.853,5.12,3.413v0.853c0,1.707-0.853,3.413-3.413,4.267l-107.52,28.16V192
	C366.933,213.333,349.867,230.4,328.533,230.4z M136.533,189.44c-0.853,0-1.707,0-1.707-0.853l-62.293-35.84
	c-1.707-0.853-2.56-2.56-2.56-3.413c0-0.853,0-1.707,0.853-2.56c0.853-1.707,3.413-2.56,5.973-1.707l62.293,35.84
	c1.707,0.853,2.56,2.56,2.56,3.413c0,0.853,0,1.707-0.853,2.56C139.947,188.587,138.24,189.44,136.533,189.44z M185.173,140.8
	c-1.707,0-2.56-0.853-3.413-2.56l-35.84-62.293c0-0.853-0.853-1.707-0.853-2.56c0-1.707,0.853-2.56,2.56-3.413
	c1.707-0.853,4.267-0.853,5.973,1.707l35.84,62.293c0,0.853,0.853,1.707,0.853,2.56c0,1.707-0.853,2.56-2.56,3.413
	C186.88,140.8,186.027,140.8,185.173,140.8z"/>
</svg>